<svg width="280" height="202" viewBox="0 0 280 202" fill="none" xmlns="http://www.w3.org/2000/svg">
<path d="M27.5946 99.316C19.832 99.316 13.3 96.6653 7.99863 91.364C2.69729 86.0627 0.0466255 79.436 0.0466255 71.484C0.0466255 63.3427 2.69729 56.8107 7.99863 51.888C13.3 46.776 19.832 44.22 27.5946 44.22C35.3573 44.22 41.8893 46.776 47.1906 51.888C52.492 56.8107 55.1426 63.3427 55.1426 71.484C55.1426 79.436 52.492 86.0627 47.1906 91.364C41.8893 96.6653 35.3573 99.316 27.5946 99.316ZM27.5946 201.272C19.832 201.272 13.3 198.621 7.99863 193.32C2.69729 188.019 0.0466255 181.392 0.0466255 173.44C0.0466255 165.299 2.69729 158.767 7.99863 153.844C13.3 148.732 19.832 146.176 27.5946 146.176C35.3573 146.176 41.8893 148.732 47.1906 153.844C52.492 158.767 55.1426 165.299 55.1426 173.44C55.1426 181.392 52.492 188.019 47.1906 193.32C41.8893 198.621 35.3573 201.272 27.5946 201.272Z" fill="#5E1FAC"/>
<path d="M279.423 0.199986L193.371 199H147.931L62.1627 0.199986H111.863L172.355 142.2L233.699 0.199986H279.423Z" fill="#A566F4"/>
</svg>
