<svg width="894" height="264" viewBox="0 0 894 264" fill="none" xmlns="http://www.w3.org/2000/svg">
<path d="M366.565 116.736C367.973 116.736 369.125 117.216 370.021 118.176C370.917 119.072 371.365 120.224 371.365 121.632V163.104C371.365 164.512 370.917 165.696 370.021 166.656C369.125 167.552 367.973 168 366.565 168C365.221 168 364.069 167.552 363.109 166.656C362.213 165.696 361.765 164.512 361.765 163.104V156.192L363.781 156.48C363.781 157.632 363.301 158.912 362.341 160.32C361.445 161.728 360.197 163.104 358.597 164.448C356.997 165.728 355.109 166.816 352.933 167.712C350.757 168.544 348.421 168.96 345.925 168.96C341.509 168.96 337.541 167.84 334.021 165.6C330.501 163.296 327.717 160.16 325.669 156.192C323.621 152.224 322.597 147.712 322.597 142.656C322.597 137.472 323.621 132.928 325.669 129.024C327.717 125.056 330.469 121.952 333.925 119.712C337.445 117.472 341.349 116.352 345.637 116.352C348.389 116.352 350.917 116.8 353.221 117.696C355.589 118.592 357.637 119.744 359.365 121.152C361.093 122.56 362.405 124.064 363.301 125.664C364.261 127.2 364.741 128.672 364.741 130.08L361.765 130.368V121.632C361.765 120.288 362.213 119.136 363.109 118.176C364.069 117.216 365.221 116.736 366.565 116.736ZM346.981 160.128C349.989 160.128 352.645 159.36 354.949 157.824C357.253 156.288 359.045 154.208 360.325 151.584C361.605 148.896 362.245 145.92 362.245 142.656C362.245 139.328 361.605 136.352 360.325 133.728C359.045 131.104 357.253 129.024 354.949 127.488C352.645 125.952 349.989 125.184 346.981 125.184C344.037 125.184 341.413 125.952 339.109 127.488C336.869 129.024 335.077 131.104 333.733 133.728C332.453 136.352 331.813 139.328 331.813 142.656C331.813 145.92 332.453 148.896 333.733 151.584C335.077 154.208 336.869 156.288 339.109 157.824C341.413 159.36 344.037 160.128 346.981 160.128ZM443.099 117.024C444.315 117.024 445.371 117.504 446.267 118.464C447.227 119.36 447.707 120.544 447.707 122.016C447.707 122.336 447.675 122.656 447.611 122.976C447.547 123.296 447.451 123.584 447.323 123.84L432.635 164.928C432.251 166.016 431.579 166.848 430.619 167.424C429.659 167.936 428.667 168.128 427.643 168C425.787 167.872 424.411 166.848 423.515 164.928L412.667 136.128L414.875 136.32L404.891 164.928C403.995 166.848 402.619 167.872 400.763 168C399.803 168.128 398.811 167.936 397.787 167.424C396.827 166.848 396.155 166.016 395.771 164.928L380.987 123.84C380.731 123.264 380.603 122.656 380.603 122.016C380.603 120.672 381.019 119.52 381.851 118.56C382.747 117.536 383.931 117.024 385.403 117.024C386.427 117.024 387.323 117.28 388.091 117.792C388.923 118.304 389.499 119.072 389.819 120.096L402.107 154.752L399.899 154.56L409.883 128.352C410.715 126.368 412.187 125.376 414.299 125.376C415.451 125.376 416.347 125.632 416.987 126.144C417.627 126.656 418.139 127.392 418.523 128.352L428.699 154.656L426.107 154.944L438.491 120.096C439.131 118.048 440.667 117.024 443.099 117.024ZM505.854 142.752C505.854 147.872 504.734 152.416 502.494 156.384C500.254 160.288 497.214 163.36 493.374 165.6C489.534 167.84 485.214 168.96 480.414 168.96C475.614 168.96 471.294 167.84 467.454 165.6C463.614 163.36 460.542 160.288 458.238 156.384C455.998 152.416 454.878 147.872 454.878 142.752C454.878 137.568 455.998 133.024 458.238 129.12C460.542 125.152 463.614 122.048 467.454 119.808C471.294 117.504 475.614 116.352 480.414 116.352C485.214 116.352 489.534 117.504 493.374 119.808C497.214 122.048 500.254 125.152 502.494 129.12C504.734 133.024 505.854 137.568 505.854 142.752ZM496.254 142.752C496.254 139.232 495.55 136.192 494.142 133.632C492.734 131.008 490.814 128.96 488.382 127.488C486.014 125.952 483.358 125.184 480.414 125.184C477.47 125.184 474.782 125.952 472.35 127.488C469.918 128.96 467.998 131.008 466.59 133.632C465.182 136.192 464.478 139.232 464.478 142.752C464.478 146.144 465.182 149.152 466.59 151.776C467.998 154.4 469.918 156.448 472.35 157.92C474.782 159.392 477.47 160.128 480.414 160.128C483.358 160.128 486.014 159.392 488.382 157.92C490.814 156.448 492.734 154.4 494.142 151.776C495.55 149.152 496.254 146.144 496.254 142.752ZM522.288 168C520.944 168 519.792 167.552 518.832 166.656C517.936 165.696 517.488 164.512 517.488 163.104V101.856C517.488 100.448 517.936 99.296 518.832 98.4C519.792 97.44 520.944 96.96 522.288 96.96C523.696 96.96 524.848 97.44 525.744 98.4C526.64 99.296 527.088 100.448 527.088 101.856V163.104C527.088 164.512 526.64 165.696 525.744 166.656C524.848 167.552 523.696 168 522.288 168ZM553.584 117.312C554.8 117.312 555.856 117.824 556.752 118.848C557.648 119.872 558.096 120.896 558.096 121.92C558.096 123.2 557.488 124.384 556.272 125.472L526.224 152.352L525.84 141.312L550.032 118.848C551.056 117.824 552.24 117.312 553.584 117.312ZM554.736 167.904C553.392 167.904 552.24 167.36 551.28 166.272L532.08 146.016L539.376 139.296L558.096 159.552C559.12 160.64 559.632 161.856 559.632 163.2C559.632 164.608 559.056 165.76 557.904 166.656C556.816 167.488 555.76 167.904 554.736 167.904ZM629.099 117.024C630.315 117.024 631.371 117.504 632.267 118.464C633.227 119.36 633.707 120.544 633.707 122.016C633.707 122.336 633.675 122.656 633.611 122.976C633.547 123.296 633.451 123.584 633.323 123.84L618.635 164.928C618.251 166.016 617.579 166.848 616.619 167.424C615.659 167.936 614.667 168.128 613.643 168C611.787 167.872 610.411 166.848 609.515 164.928L598.667 136.128L600.875 136.32L590.891 164.928C589.995 166.848 588.619 167.872 586.763 168C585.803 168.128 584.811 167.936 583.787 167.424C582.827 166.848 582.155 166.016 581.771 164.928L566.987 123.84C566.731 123.264 566.603 122.656 566.603 122.016C566.603 120.672 567.019 119.52 567.851 118.56C568.747 117.536 569.931 117.024 571.403 117.024C572.427 117.024 573.323 117.28 574.091 117.792C574.923 118.304 575.499 119.072 575.819 120.096L588.107 154.752L585.899 154.56L595.883 128.352C596.715 126.368 598.187 125.376 600.299 125.376C601.451 125.376 602.347 125.632 602.987 126.144C603.627 126.656 604.139 127.392 604.523 128.352L614.699 154.656L612.107 154.944L624.491 120.096C625.131 118.048 626.667 117.024 629.099 117.024ZM691.854 142.752C691.854 147.872 690.734 152.416 688.494 156.384C686.254 160.288 683.214 163.36 679.374 165.6C675.534 167.84 671.214 168.96 666.414 168.96C661.614 168.96 657.294 167.84 653.454 165.6C649.614 163.36 646.542 160.288 644.238 156.384C641.998 152.416 640.878 147.872 640.878 142.752C640.878 137.568 641.998 133.024 644.238 129.12C646.542 125.152 649.614 122.048 653.454 119.808C657.294 117.504 661.614 116.352 666.414 116.352C671.214 116.352 675.534 117.504 679.374 119.808C683.214 122.048 686.254 125.152 688.494 129.12C690.734 133.024 691.854 137.568 691.854 142.752ZM682.254 142.752C682.254 139.232 681.55 136.192 680.142 133.632C678.734 131.008 676.814 128.96 674.382 127.488C672.014 125.952 669.358 125.184 666.414 125.184C663.47 125.184 660.782 125.952 658.35 127.488C655.918 128.96 653.998 131.008 652.59 133.632C651.182 136.192 650.478 139.232 650.478 142.752C650.478 146.144 651.182 149.152 652.59 151.776C653.998 154.4 655.918 156.448 658.35 157.92C660.782 159.392 663.47 160.128 666.414 160.128C669.358 160.128 672.014 159.392 674.382 157.92C676.814 156.448 678.734 154.4 680.142 151.776C681.55 149.152 682.254 146.144 682.254 142.752ZM708.288 168C706.944 168 705.792 167.552 704.832 166.656C703.936 165.696 703.488 164.512 703.488 163.104V101.856C703.488 100.448 703.936 99.296 704.832 98.4C705.792 97.44 706.944 96.96 708.288 96.96C709.696 96.96 710.848 97.44 711.744 98.4C712.64 99.296 713.088 100.448 713.088 101.856V163.104C713.088 164.512 712.64 165.696 711.744 166.656C710.848 167.552 709.696 168 708.288 168ZM739.584 117.312C740.8 117.312 741.856 117.824 742.752 118.848C743.648 119.872 744.096 120.896 744.096 121.92C744.096 123.2 743.488 124.384 742.272 125.472L712.224 152.352L711.84 141.312L736.032 118.848C737.056 117.824 738.24 117.312 739.584 117.312ZM740.736 167.904C739.392 167.904 738.24 167.36 737.28 166.272L718.08 146.016L725.376 139.296L744.096 159.552C745.12 160.64 745.632 161.856 745.632 163.2C745.632 164.608 745.056 165.76 743.904 166.656C742.816 167.488 741.76 167.904 740.736 167.904Z" fill="#5E1FAC"/>
<path d="M159.742 132.35C156.72 132.35 154.177 131.326 152.114 129.279C150.05 127.232 149.018 124.673 149.018 121.603C149.018 118.459 150.05 115.937 152.114 114.036C154.177 112.062 156.72 111.075 159.742 111.075C162.764 111.075 165.307 112.062 167.371 114.036C169.434 115.937 170.466 118.459 170.466 121.603C170.466 124.673 169.434 127.232 167.371 129.279C165.307 131.326 162.764 132.35 159.742 132.35ZM159.742 171.719C156.72 171.719 154.177 170.695 152.114 168.648C150.05 166.601 149.018 164.042 149.018 160.972C149.018 157.828 150.05 155.306 152.114 153.405C154.177 151.431 156.72 150.444 159.742 150.444C162.764 150.444 165.307 151.431 167.371 153.405C169.434 155.306 170.466 157.828 170.466 160.972C170.466 164.042 169.434 166.601 167.371 168.648C165.307 170.695 162.764 171.719 159.742 171.719Z" fill="#5E1FAC"/>
<path d="M257.775 94.0772L224.277 170.842H206.587L173.199 94.0772H192.547L216.095 148.909L239.976 94.0772H257.775Z" fill="#A566F4"/>
</svg>
